<svg width="67" height="67" viewBox="0 0 67 67" fill="none" xmlns="http://www.w3.org/2000/svg">
<path d="M67 33.5C67 52.0015 52.0015 67 33.5 67C14.9985 67 0 52.0015 0 33.5C0 14.9985 14.9985 0 33.5 0C52.0015 0 67 14.9985 67 33.5Z" fill="#FF0000"/>
<path d="M43.873 40.3105L48.4609 33.2441L51.5547 33.2617V33.4902L46.3691 40.3105H43.873ZM43.873 26.3184H46.3691L51.5547 33.1562V33.3848L48.4609 33.4023L43.873 26.3184ZM50.0078 40.3105L54.5957 33.2441L57.6895 33.2617V33.4902L52.5039 40.3105H50.0078ZM50.0078 26.3184H52.5039L57.6895 33.1562V33.3848L54.5957 33.4023L50.0078 26.3184Z" fill="white"/>
<path d="M18.502 26.3711L13.9141 33.4375L10.8203 33.4199V33.1914L16.0059 26.3711H18.502ZM13.9141 33.2793L18.502 40.3633H16.0059L10.8203 33.5254V33.2969L13.9141 33.2793ZM24.3203 26.3711L19.7324 33.4375L16.6387 33.4199V33.1914L21.8242 26.3711H24.3203ZM19.7324 33.2793L24.3203 40.3633H21.8242L16.6387 33.5254V33.2969L19.7324 33.2793Z" fill="white"/>
</svg>
